<?xml version="1.0" standalone="no"?><!DOCTYPE svg PUBLIC "-//W3C//DTD SVG 1.1//EN" "http://www.w3.org/Graphics/SVG/1.1/DTD/svg11.dtd"><svg t="1702201802095" class="icon" viewBox="0 0 1024 1024" version="1.1" xmlns="http://www.w3.org/2000/svg" p-id="7149" xmlns:xlink="http://www.w3.org/1999/xlink" width="200" height="200"><path d="M798 0H226c-35.3 0-64 28.7-64 64v896c0 35.3 28.7 64 64 64h572c35.3 0 64-28.7 64-64V64c0-35.3-28.7-64-64-64z m0 928c0 17.6-14.4 32-32 32H258c-17.6 0-32-14.4-32-32V773.8h572V928zM226 709.8V96c0-17.6 14.4-32 32-32h508c17.6 0 32 14.4 32 32v613.8H226z" p-id="7150"></path><path d="M457 869.4a55 55 0 1 0 110 0 55 55 0 1 0-110 0z" p-id="7151"></path></svg>